<?xml version="1.0" encoding="UTF-8" standalone="no"?>
<svg width="91px" height="11px" viewBox="0 0 91 11" version="1.1" xmlns="http://www.w3.org/2000/svg" xmlns:xlink="http://www.w3.org/1999/xlink" xmlns:sketch="http://www.bohemiancoding.com/sketch/ns">
    <!-- Generator: Sketch 3.4.4 (17249) - http://www.bohemiancoding.com/sketch -->
    <title>Separator</title>
    <desc>Created with Sketch.</desc>
    <defs></defs>
    <g id="Macbook-Air-(1440px)" stroke="none" stroke-width="1" fill="none" fill-rule="evenodd" sketch:type="MSPage">
        <g id="Blog" sketch:type="MSArtboardGroup" transform="translate(-138.000000, -368.000000)" stroke-linecap="round" stroke="#D8D8D8" stroke-width="2">
            <g id="Header-Title" sketch:type="MSLayerGroup" transform="translate(138.000000, 143.000000)">
                <path d="M1,235 C5.49999974,235 5.75225965,226 10,226 C14.2477404,226 13.7477404,235 18,235 C22.2522596,235 22.5,226 27,226 C31.5,226 31.5,235 36,235 C40.5,235 40.5,226 45,226 C49.5,226 49.5,235 54,235 C58.5,235 58.5,226 63,226 C67.5,226 67.5,235 72,235 C76.5,235 76.5,226 81,226 C85.5,226 85.5000007,235 90,235" id="Separator" sketch:type="MSShapeGroup"></path>
            </g>
        </g>
    </g>
</svg>